/* XPM */
static char *OsirisIcon[]={
"32 32 182 2",
".A c #008080",
".B c #048080",
"#V c #078080",
".R c #078380",
".z c #0e8080",
".t c #128080",
".C c #158080",
".H c #158680",
".s c #158a80",
"#U c #158e80",
"#9 c #159580",
".u c #198080",
"aS c #198380",
"#z c #198680",
"#3 c #1c8680",
"#W c #1c868e",
"#L c #1c8a8e",
".1 c #208080",
"#y c #208680",
"#2 c #208a80",
"#1 c #208a8e",
"ac c #238a8e",
"#b c #248080",
"ag c #248380",
".I c #248e80",
"a. c #249580",
".k c #278080",
"ab c #27868e",
"aa c #27878e",
"aR c #278a8e",
"#T c #279580",
".D c #2a8080",
"aN c #2a9487",
"aM c #2b8780",
".r c #2b8a95",
".J c #2b9580",
".K c #2b959c",
"aG c #2e8384",
"#E c #318a8e",
"ax c #328080",
"aj c #32918e",
"aU c #329495",
"#0 c #369595",
".S c #398a88",
"aQ c #399195",
".L c #3d95aa",
"#j c #40878e",
"#t c #449c80",
"as c #47958e",
"ak c #479595",
"#K c #479c95",
".j c #588080",
".y c #5c8788",
"#n c #5ca78e",
"af c #63918e",
"#M c #678e90",
"#a c #6a8688",
".q c #6a9195",
"#S c #6e9590",
"#Z c #6e9595",
"#4 c #719588",
".M c #75959e",
".G c #789497",
"ah c #789595",
"#X c #789f9d",
"aV c #7fb0b1",
"aO c #7fbeb1",
".N c #809598",
"aF c #839792",
"ao c #839892",
"#u c #83aa9c",
"a# c #83aab8",
"#c c #869595",
".O c #869598",
"aL c #8a9f9e",
".T c #8e9f9d",
".x c #8eaaa4",
"#D c #8ebab8",
"#k c #959595",
"#R c #95aaa4",
"#i c #95aab2",
".p c #95adc0",
".i c #95b5aa",
"#q c #9c9c9f",
"ar c #9c9f9d",
"at c #9caab2",
"#g c #9caea4",
"#J c #9cbeb1",
"#Q c #a0b5aa",
"#P c #a0b5b8",
"#f c #a3a6a6",
".o c #a3b4b3",
".2 c #a3baac",
"aW c #a3bec5",
"ap c #a6aea8",
"aK c #a6c1b8",
".8 c #aaaaad",
"#o c #aab7c5",
"#7 c #aabbb3",
"#m c #aac8b8",
"aJ c #aac8c0",
".l c #aac9c0",
"aI c #aacec0",
"av c #b5bbb6",
"an c #b8b7b8",
"#x c #b8beb8",
".9 c #b8beb9",
"#p c #b8c4b8",
"aw c #b8c8c4",
"#s c #b8ccc5",
"#8 c #b8cfca",
"aP c #b8d2c5",
"ai c #b8d8d4",
".Y c #c0c3c0",
"az c #c0c6c0",
"#B c #c0ccc0",
"aD c #c0d2c0",
"aH c #c3dbf5",
"#w c #c6c5c4",
".U c #c6c8c4",
".P c #c6d0ca",
".F c #c6d2c7",
"aE c #c6d3d0",
"ay c #c7ccc5",
"#e c #c7d2c5",
".b c #c9dfea",
".h c #cddde3",
"aX c #cde0d3",
"aY c #cde0e3",
"#A c #ceccca",
".7 c #ced0ca",
"#G c #ced9ca",
".X c #cedcca",
"aB c #cfe3df",
"aT c #d4e8dc",
"ae c #d5d3d0",
".V c #d5d9d0",
".n c #d5d9d1",
"ad c #d5dfd0",
"#I c #d5e0d3",
".a c #d5e7d5",
"#O c #d7e8e3",
"au c #d8ded8",
"aA c #d8e4d8",
"#C c #dbeaea",
"aC c #dce8dc",
".w c #e2e0dc",
"#Y c #e2e4dd",
".g c #e2e6ea",
"al c #e2e8e3",
"#5 c #e2ebe3",
"aZ c #e2f0ea",
"#. c #e3eddc",
"## c #e3eedf",
"#N c #e6eaea",
".Z c #eae8e3",
"#v c #eae9e6",
"#d c #eaeaea",
"aq c #eaebe3",
".f c #eaedea",
".0 c #eaf0ea",
".e c #eaf3ea",
"#h c #f1eee8",
"am c #f1f0ef",
".W c #f1f4e8",
".m c #f1f5ea",
"#l c #f1f6ef",
"#F c #f8f5f1",
"#r c #f8f6f4",
".6 c #f8f8f1",
".v c #f8f8f8",
".3 c #f8f9f4",
".Q c #f8faf4",
"#6 c #f8fbf8",
"#H c #fffbf1",
".# c #fffcf5",
".E c #fffdf8",
".4 c #fffdfa",
".d c #fffdfb",
".c c #fffefb",
".5 c #fffefd",
"Qt c #ffffff",
"QtQtQtQtQtQtQtQtQtQtQtQtQtQtQtQtQtQtQtQtQtQtQtQtQtQtQtQtQtQtQtQt",
"QtQtQtQtQtQtQtQtQtQtQtQt.#.#.a.b.#.cQtQtQtQtQtQtQtQtQtQtQtQtQtQt",
"QtQtQtQtQtQtQt.d.e.f.g.h.i.i.j.k.l.eQtQtQtQtQtQtQtQtQtQtQtQtQtQt",
"QtQtQtQtQtQt.m.n.o.p.q.r.s.s.t.u.l.eQtQtQtQtQtQtQtQtQtQtQtQtQtQt",
"QtQtQtQt.v.w.x.y.z.A.A.A.B.t.C.D.l.eQtQtQtQtQtQtQtQtQtQtQtQtQtQt",
"QtQtQt.E.F.G.H.z.C.I.J.K.L.M.N.O.P.QQtQt.#.#QtQtQtQtQtQtQtQtQtQt",
"QtQtQt.a.j.t.R.S.T.U.V.W.#.#.#.#QtQtQt.E.X.Y.Z.0.dQtQtQtQtQtQtQt",
"QtQtQt.a.1.B.S.2.f.3.4.5QtQtQtQtQtQtQtQt.6.7.8.9#..#QtQtQtQtQtQt",
"QtQtQt###a#b#c#dQtQtQtQtQtQtQtQtQtQtQtQtQtQt.W#e#f#g#h.5QtQtQtQt",
"QtQtQt.##i#j#k.ZQtQtQtQtQtQtQtQtQtQtQtQtQtQt.5#l#m#n#o#hQtQtQtQt",
"QtQtQtQt.W#p#k#q.Z#rQtQtQtQtQtQtQtQtQtQtQtQtQtQt#l#s#t#u.mQtQtQt",
"QtQtQtQt.5#l#v#w.8#w.#.#QtQtQtQtQtQtQtQtQtQtQtQt.W#x#y#z.bQtQtQt",
"QtQtQtQtQtQtQt.E.W.V#A#B.#QtQtQtQtQt.5#l.e.e.0#C#D#E.B.t.bQtQtQt",
"QtQtQtQtQtQtQtQt.5.4#F#G#H.#.#.#.####I#s.l.l#J#K#L.R.1#M.aQtQtQt",
"QtQtQtQtQtQtQtQt.5#l#N#O#P#Q#R.N#S#T#U.C.C.C.C#V.C#W#X#YQtQtQtQt",
"QtQtQtQtQtQt.#.##h#x#Z#0#1#2#3.C.t.B.A.A.A.z.C.C#4#i#5#6QtQtQtQt",
"QtQtQtQt.5#h#i#4.I.C.z.A.A.A.C.C.C#3#2#1#0#Z#7#8#..#QtQtQtQtQtQt",
"QtQtQtQt#h#o#W.C#V.C.C.C#9a.#4.N.N#R#Q#P#O#N.e.3.dQtQtQtQtQtQtQt",
"QtQtQt.ma#aa.R#L#K#J.l#8.a.a.#.#.#.#.#.#.4.4.4.5QtQtQtQtQtQtQtQt",
"QtQtQt.bab.Bac#D#C.0.e.3QtQtQtQtQtQtQt.Eadae.V.W.EQtQtQtQtQtQtQt",
"QtQtQt##afagah.ZQtQtQtQtQtQtQtQtQtQtQtQt.#.##w.8#w#v.dQtQtQtQtQt",
"QtQtQt.daiajakalQtQtQtQtQtQtQtQtQtQtQtQtQtQt#r.Z#q#k#..#QtQtQtQt",
"QtQtQtQtamanaoapaq.3QtQtQtQtQtQtQtQtQtQtQtQtQtQtaqarasat.#QtQtQt",
"QtQtQtQt.5amauavar.U.EQtQtQtQtQtQtQtQtQtQtQtQtQt.Qawax#a##QtQtQt",
"QtQtQtQtQtQt.c.##Iayaz#B.dQtQtQtQtQtQtQtQtQt.4.4aAao.C.zaBQtQtQt",
"QtQtQtQtQtQtQtQt.5#laCaD.#QtQtQtQtQtQt.E.#.#aeaEaFaG#V.zaHQtQtQt",
"QtQtQtQtQtQtQtQtQtQt.c.#QtQt.5.WaIaJaKaL.M.L.JaM.u.uaNaO.#QtQtQt",
"QtQtQtQtQtQtQtQtQtQtQtQtQtQt#laPaQ.raRaS.t.B.A.A.t.j#JaT.dQtQtQt",
"QtQtQtQtQtQtQtQtQtQtQtQtQtQt.e.l.C.A.z.H.s.saUaVaWaX.#.cQtQtQtQt",
"QtQtQtQtQtQtQtQtQtQtQtQtQtQt.e.l.C.z.y.x.i.iaYaZ#l.5QtQtQtQtQtQt",
"QtQtQtQtQtQtQtQtQtQtQtQtQtQt.c.#.b.a.a.m.#.#QtQtQtQtQtQtQtQtQtQt",
"QtQtQtQtQtQtQtQtQtQtQtQtQtQtQtQtQtQtQtQtQtQtQtQtQtQtQtQtQtQtQtQt"};
