/* XPM */
static char *OsirisIcon[] = {
/* columns rows colors chars-per-pixel */
"32 32 99 2 ",
"   c #000000",
".  c #020403",
"X  c #030403",
"o  c #030704",
"O  c #050605",
"+  c #040906",
"@  c #050B07",
"#  c #050C07",
"$  c #070C09",
"%  c #060F09",
"&  c #090D0A",
"*  c #090E0B",
"=  c #07100A",
"-  c #07130B",
";  c #08120C",
":  c #08130C",
">  c #0B130E",
",  c #08140C",
"<  c #0A170E",
"1  c #09180E",
"2  c #0C1610",
"3  c #0C1B11",
"4  c #0D1D12",
"5  c #0F1E14",
"6  c #0C2013",
"7  c #0D2314",
"8  c #0E2315",
"9  c #0F2517",
"0  c #102016",
"q  c #102A19",
"w  c #122E1C",
"e  c #13311D",
"r  c #14321E",
"t  c #14341E",
"y  c #173421",
"u  c #173622",
"i  c #173722",
"p  c #173922",
"a  c #183A23",
"s  c #193F26",
"d  c #1B3F27",
"f  c #1B4329",
"g  c #1B462A",
"h  c #1D452B",
"j  c #1F4A2D",
"k  c #1E4C2E",
"l  c #205130",
"z  c #225533",
"x  c #235735",
"c  c #235A35",
"v  c #265F39",
"b  c #26613A",
"n  c #2B6C41",
"m  c #2B6D41",
"M  c #2D7244",
"N  c #2E7445",
"B  c #2F7847",
"V  c #2E7947",
"C  c #2F7B49",
"Z  c #32824D",
"A  c #33844E",
"S  c #34864F",
"D  c #348750",
"F  c #348950",
"G  c #368D53",
"H  c #379055",
"J  c #389156",
"K  c #389457",
"L  c #399558",
"P  c #3A995A",
"I  c #3C9E5D",
"U  c #3EA15F",
"Y  c #3EA460",
"T  c #3FA762",
"R  c #40A863",
"E  c #41AA64",
"W  c #41AB64",
"Q  c #41AC65",
"!  c #43B269",
"~  c #43B369",
"^  c #45B76B",
"/  c #46BB6D",
"(  c #47BC6E",
")  c #48C070",
"_  c #48C171",
"`  c #49C372",
"'  c #4BCB76",
"]  c #4CCC77",
"[  c #4DCF79",
"{  c #4ED27B",
"}  c #4FD47C",
"|  c #50D77D",
" . c #50D77E",
".. c #51DA7F",
"X. c #51DC80",
"o. c #52DE81",
"O. c #55E686",
"+. c #56E887",
"@. c #56E988",
/* pixels */
"                              =                                 ",
"                        > r b N <                               ",
"                  # w b K / } ' q .                             ",
"              1 k A ! { o.O.@.' r 8 8 1 @                       ",
"          < l J ( [ | |  .[ ( G =   # 8 r r 4 o                 ",
"      o s Z E / ) ) ^ Y S b p <           = r g p 1             ",
"    @ k D P I P D n k q =                     @ q k a $         ",
"    i n N n x a 4 @                               o w i &       ",
"  @ s h i 3 @                                         ; & O     ",
"  @ 5 > O                                             O 2 0 #   ",
"    O & 1                                         $ 8 p j s @   ",
"      $ i t #                               = 9 h b M N m r     ",
"        $ i k t $                   . 1 r z N J I Y P A h @     ",
"            $ r g t 1         @ 8 g n J Q ( ) ` ( Y C i .       ",
"                . 1 q r q q l Z E ) { X.X.| ' ! F k >           ",
"                  o 8 c L ~ { o.O.@.@.| ' E V f =               ",
"              > s V E ' o.O.@.O.o.[ ! L c 8 o                   ",
"          = k F ! [ } o.| { ) Y C x q q r q 1 .                 ",
"      . p V R / ) ` ( Q J n g 8 @       . 1 r g r =             ",
"    o g S P U I J C x r 1 .                   $ t k p @         ",
"    r n N N b f 9 $                               ; r u $       ",
"  @ f j p 8 $                                         1 & O     ",
"  @ 5 < O                                               > 4 #   ",
"    O & <                                         @ 3 y h f #   ",
"      & u w @                               # 4 a x n M n u     ",
"        & a k q @                     $ q k m F P I P S k #     ",
"            < i g w =           1 a b S Y ^ ) ) / E Z s #       ",
"                o 8 r r 8 @   = G ( { | |  .] / J l <           ",
"                      @ 1 8 8 r [ @.O.o.[ ! S k 1               ",
"                            . q ' { / J b r #                   ",
"                              < C b r =                         ",
"                                =                               "
};
